<?xml version="1.0" encoding="utf-8"?>
<!-- Generator: Adobe Illustrator 24.0.0, SVG Export Plug-In . SVG Version: 6.00 Build 0)  -->
<svg version="1.1"
	 id="svg7" inkscape:version="0.92.1 r15371" sodipodi:docname="TG1.svg" xmlns:cc="http://creativecommons.org/ns#" xmlns:dc="http://purl.org/dc/elements/1.1/" xmlns:inkscape="http://www.inkscape.org/namespaces/inkscape" xmlns:rdf="http://www.w3.org/1999/02/22-rdf-syntax-ns#" xmlns:sodipodi="http://sodipodi.sourceforge.net/DTD/sodipodi-0.dtd" xmlns:svg="http://www.w3.org/2000/svg"
	 xmlns="http://www.w3.org/2000/svg" xmlns:xlink="http://www.w3.org/1999/xlink" x="0px" y="0px" viewBox="0 0 560 397"
	 style="enable-background:new 0 0 560 397;" xml:space="preserve">
<style type="text/css">
	.st0{fill:#F4F4F4;}
</style>
<sodipodi:namedview  bordercolor="#666666" borderopacity="1" gridtolerance="10" guidetolerance="10" id="namedview9" inkscape:current-layer="svg7" inkscape:cx="444.08745" inkscape:cy="271.35704" inkscape:pageopacity="0" inkscape:pageshadow="2" inkscape:window-height="837" inkscape:window-maximized="1" inkscape:window-width="1600" inkscape:window-x="-8" inkscape:window-y="-8" inkscape:zoom="0.44584382" objecttolerance="10" pagecolor="#ffffff" showgrid="false">
	</sodipodi:namedview>
<g id="_x23_000000ff">
	<path id="path2" class="st0" d="M0,0h86.1c0,25.7,0,51.4,0,77.1c18.7,0,37.4,0.1,56.1,0c0,27.8,0,55.5,0,83.3
		c-18.7,0-37.4,0-56.1,0c0,25.4,0,50.8,0,76.2c24.4,0,48.8,0,73.1,0c0.1-53.5,0-107,0-160.5c81.2,0,162.3,0,243.5,0
		c0,27.4-0.1,54.8,0,82.2c-52.5,0-104.9,0-157.4,0c0,26.1,0,52.2,0,78.3c23.7,0,47.4,0,71.2,0c0-18.4,0-36.8,0-55.2
		c28.7,0,57.5,0,86.2,0c0,48.1,0,96.3,0,144.4c-134.3,0-268.5,0-402.8,0V0z"/>
	<path id="path4" class="st0" d="M419.8,75.1c46.7,0.1,93.5,0,140.2,0V397h-86.1c0-79.9,0-159.7,0-239.6c-18,0-36.1,0-54.1,0
		C419.8,130,419.8,102.5,419.8,75.1z"/>
</g>
</svg>
